<mxfile host="app.diagrams.net" modified="2023-08-18T05:25:55.130Z" agent="Mozilla/5.0 (Windows NT 10.0; Win64; x64) AppleWebKit/537.36 (KHTML, like Gecko) Chrome/115.0.0.0 Safari/537.36 Edg/115.0.1901.200" etag="MPfgDReBvBbmIbSwH0cW" version="21.6.6" type="github">
  <diagram name="第 1 页" id="OGliJOE4tW2DUMZxxRDU">
    <mxGraphModel dx="1379" dy="756" grid="1" gridSize="10" guides="1" tooltips="1" connect="1" arrows="1" fold="1" page="1" pageScale="1" pageWidth="827" pageHeight="1169" math="0" shadow="0">
      <root>
        <mxCell id="0" />
        <mxCell id="1" parent="0" />
        <mxCell id="7R4Kz0LJVm2sexOzA-uK-1" value="Robot" style="shape=umlLifeline;perimeter=lifelinePerimeter;whiteSpace=wrap;html=1;container=1;dropTarget=0;collapsible=0;recursiveResize=0;outlineConnect=0;portConstraint=eastwest;newEdgeStyle={&quot;edgeStyle&quot;:&quot;elbowEdgeStyle&quot;,&quot;elbow&quot;:&quot;vertical&quot;,&quot;curved&quot;:0,&quot;rounded&quot;:0};" parent="1" vertex="1">
          <mxGeometry x="800" y="60" width="100" height="360" as="geometry" />
        </mxCell>
        <mxCell id="7R4Kz0LJVm2sexOzA-uK-2" value="取消日志上传" style="shape=umlFrame;whiteSpace=wrap;html=1;pointerEvents=0;width=170;height=30;" parent="1" vertex="1">
          <mxGeometry x="10" y="10" width="1260" height="650" as="geometry" />
        </mxCell>
        <mxCell id="7R4Kz0LJVm2sexOzA-uK-4" value="后端" style="shape=umlLifeline;perimeter=lifelinePerimeter;whiteSpace=wrap;html=1;container=1;dropTarget=0;collapsible=0;recursiveResize=0;outlineConnect=0;portConstraint=eastwest;newEdgeStyle={&quot;edgeStyle&quot;:&quot;elbowEdgeStyle&quot;,&quot;elbow&quot;:&quot;vertical&quot;,&quot;curved&quot;:0,&quot;rounded&quot;:0};" parent="1" vertex="1">
          <mxGeometry x="420" y="60" width="100" height="360" as="geometry" />
        </mxCell>
        <mxCell id="dUjvd-HKNAqpHXVFM26k-40" value="" style="html=1;points=[];perimeter=orthogonalPerimeter;outlineConnect=0;targetShapes=umlLifeline;portConstraint=eastwest;newEdgeStyle={&quot;edgeStyle&quot;:&quot;elbowEdgeStyle&quot;,&quot;elbow&quot;:&quot;vertical&quot;,&quot;curved&quot;:0,&quot;rounded&quot;:0};" parent="7R4Kz0LJVm2sexOzA-uK-4" vertex="1">
          <mxGeometry x="45" y="180" width="10" height="120" as="geometry" />
        </mxCell>
        <mxCell id="7R4Kz0LJVm2sexOzA-uK-11" value="" style="html=1;points=[];perimeter=orthogonalPerimeter;outlineConnect=0;targetShapes=umlLifeline;portConstraint=eastwest;newEdgeStyle={&quot;edgeStyle&quot;:&quot;elbowEdgeStyle&quot;,&quot;elbow&quot;:&quot;vertical&quot;,&quot;curved&quot;:0,&quot;rounded&quot;:0};" parent="1" vertex="1">
          <mxGeometry x="845" y="290" width="10" height="50" as="geometry" />
        </mxCell>
        <mxCell id="7R4Kz0LJVm2sexOzA-uK-12" value="2. mqtt发送取消上传指令" style="html=1;verticalAlign=bottom;endArrow=block;edgeStyle=elbowEdgeStyle;elbow=vertical;curved=0;rounded=0;startArrow=none;" parent="1" source="7R4Kz0LJVm2sexOzA-uK-4" target="7R4Kz0LJVm2sexOzA-uK-1" edge="1">
          <mxGeometry x="0.054" y="10" relative="1" as="geometry">
            <mxPoint x="480" y="290" as="sourcePoint" />
            <Array as="points">
              <mxPoint x="550" y="290" />
              <mxPoint x="630" y="330" />
              <mxPoint x="671" y="280" />
              <mxPoint x="541" y="300" />
              <mxPoint x="501" y="300" />
              <mxPoint x="541" y="270" />
              <mxPoint x="711" y="260" />
            </Array>
            <mxPoint as="offset" />
            <mxPoint x="800" y="290" as="targetPoint" />
          </mxGeometry>
        </mxCell>
        <mxCell id="7R4Kz0LJVm2sexOzA-uK-13" value="3mqtt上报结果" style="html=1;verticalAlign=bottom;endArrow=open;dashed=1;endSize=8;edgeStyle=elbowEdgeStyle;elbow=vertical;curved=0;rounded=0;startArrow=none;" parent="1" edge="1">
          <mxGeometry x="-0.017" y="20" relative="1" as="geometry">
            <mxPoint x="472.5" y="340" as="targetPoint" />
            <Array as="points">
              <mxPoint x="690" y="340" />
              <mxPoint x="745" y="470" />
              <mxPoint x="705" y="440" />
              <mxPoint x="725" y="450" />
              <mxPoint x="755" y="410" />
            </Array>
            <mxPoint as="offset" />
            <mxPoint x="845" y="340" as="sourcePoint" />
          </mxGeometry>
        </mxCell>
        <mxCell id="dUjvd-HKNAqpHXVFM26k-39" value="前端" style="shape=umlLifeline;perimeter=lifelinePerimeter;whiteSpace=wrap;html=1;container=1;dropTarget=0;collapsible=0;recursiveResize=0;outlineConnect=0;portConstraint=eastwest;newEdgeStyle={&quot;edgeStyle&quot;:&quot;elbowEdgeStyle&quot;,&quot;elbow&quot;:&quot;vertical&quot;,&quot;curved&quot;:0,&quot;rounded&quot;:0};" parent="1" vertex="1">
          <mxGeometry x="70" y="60" width="100" height="360" as="geometry" />
        </mxCell>
        <mxCell id="dUjvd-HKNAqpHXVFM26k-41" value="" style="html=1;points=[];perimeter=orthogonalPerimeter;outlineConnect=0;targetShapes=umlLifeline;portConstraint=eastwest;newEdgeStyle={&quot;edgeStyle&quot;:&quot;elbowEdgeStyle&quot;,&quot;elbow&quot;:&quot;vertical&quot;,&quot;curved&quot;:0,&quot;rounded&quot;:0};" parent="dUjvd-HKNAqpHXVFM26k-39" vertex="1">
          <mxGeometry x="45" y="110" width="10" height="70" as="geometry" />
        </mxCell>
        <mxCell id="dUjvd-HKNAqpHXVFM26k-42" value="选择排队中的上传记录" style="html=1;align=left;spacingLeft=2;endArrow=block;rounded=0;edgeStyle=orthogonalEdgeStyle;curved=0;rounded=0;" parent="dUjvd-HKNAqpHXVFM26k-39" source="dUjvd-HKNAqpHXVFM26k-41" target="dUjvd-HKNAqpHXVFM26k-41" edge="1">
          <mxGeometry relative="1" as="geometry">
            <mxPoint x="50" y="110" as="sourcePoint" />
            <Array as="points">
              <mxPoint x="85" y="110" />
              <mxPoint x="85" y="140" />
            </Array>
            <mxPoint as="offset" />
          </mxGeometry>
        </mxCell>
        <mxCell id="rs9oqlC2Odley0dmmfKc-18" value="" style="html=1;points=[];perimeter=orthogonalPerimeter;outlineConnect=0;targetShapes=umlLifeline;portConstraint=eastwest;newEdgeStyle={&quot;edgeStyle&quot;:&quot;elbowEdgeStyle&quot;,&quot;elbow&quot;:&quot;vertical&quot;,&quot;curved&quot;:0,&quot;rounded&quot;:0};" parent="dUjvd-HKNAqpHXVFM26k-39" vertex="1">
          <mxGeometry x="45" y="300" width="10" height="20" as="geometry" />
        </mxCell>
        <mxCell id="dUjvd-HKNAqpHXVFM26k-48" value="" style="endArrow=classic;html=1;rounded=0;" parent="1" target="7R4Kz0LJVm2sexOzA-uK-4" edge="1">
          <mxGeometry width="50" height="50" relative="1" as="geometry">
            <mxPoint x="125" y="140" as="sourcePoint" />
            <mxPoint x="326.5000000000002" y="140" as="targetPoint" />
          </mxGeometry>
        </mxCell>
        <mxCell id="dUjvd-HKNAqpHXVFM26k-50" value="建立websocket" style="edgeLabel;html=1;align=center;verticalAlign=middle;resizable=0;points=[];" parent="dUjvd-HKNAqpHXVFM26k-48" vertex="1" connectable="0">
          <mxGeometry x="-0.0306" relative="1" as="geometry">
            <mxPoint y="-10" as="offset" />
          </mxGeometry>
        </mxCell>
        <mxCell id="dUjvd-HKNAqpHXVFM26k-51" value="" style="endArrow=classic;html=1;rounded=0;" parent="1" target="7R4Kz0LJVm2sexOzA-uK-4" edge="1">
          <mxGeometry width="50" height="50" relative="1" as="geometry">
            <mxPoint x="846" y="140" as="sourcePoint" />
            <mxPoint x="570" y="140" as="targetPoint" />
            <Array as="points" />
          </mxGeometry>
        </mxCell>
        <mxCell id="dUjvd-HKNAqpHXVFM26k-52" value="建立mqtt连接" style="edgeLabel;html=1;align=center;verticalAlign=middle;resizable=0;points=[];" parent="dUjvd-HKNAqpHXVFM26k-51" vertex="1" connectable="0">
          <mxGeometry x="-0.0306" relative="1" as="geometry">
            <mxPoint x="1" y="-10" as="offset" />
          </mxGeometry>
        </mxCell>
        <mxCell id="rs9oqlC2Odley0dmmfKc-19" value="6&amp;nbsp; ws通知执行结果" style="html=1;verticalAlign=bottom;endArrow=open;dashed=1;endSize=8;edgeStyle=elbowEdgeStyle;elbow=vertical;curved=0;rounded=0;" parent="1" edge="1">
          <mxGeometry relative="1" as="geometry">
            <mxPoint x="466.5" y="360" as="sourcePoint" />
            <mxPoint x="120" y="360" as="targetPoint" />
            <Array as="points">
              <mxPoint x="393" y="360" />
              <mxPoint x="368" y="440" />
              <mxPoint x="448" y="470" />
              <mxPoint x="358" y="460" />
              <mxPoint x="238" y="450" />
              <mxPoint x="178" y="490" />
              <mxPoint x="378" y="450" />
            </Array>
          </mxGeometry>
        </mxCell>
        <mxCell id="TE_OdIo05fsX94bUnwB3-1" value="" style="endArrow=classic;html=1;rounded=0;" parent="1" edge="1">
          <mxGeometry width="50" height="50" relative="1" as="geometry">
            <mxPoint x="125" y="240" as="sourcePoint" />
            <mxPoint x="470" y="240" as="targetPoint" />
            <Array as="points" />
          </mxGeometry>
        </mxCell>
        <mxCell id="TE_OdIo05fsX94bUnwB3-2" value="1. ws 发送取消上传指令" style="edgeLabel;html=1;align=center;verticalAlign=middle;resizable=0;points=[];" parent="TE_OdIo05fsX94bUnwB3-1" vertex="1" connectable="0">
          <mxGeometry x="-0.0306" relative="1" as="geometry">
            <mxPoint y="-20" as="offset" />
          </mxGeometry>
        </mxCell>
      </root>
    </mxGraphModel>
  </diagram>
</mxfile>
